<svg width="240" height="328" viewBox="0 0 240 328" fill="none" xmlns="http://www.w3.org/2000/svg">
<mask id="path-1-inside-1_325_13" fill="white">
<path d="M43 328H68V82L43 102.049V328Z"/>
</mask>
<path d="M68 328V354H94V328H68ZM43 328H17V354H43V328ZM43 102.049L26.7336 81.7661L17 89.5721V102.049H43ZM68 82H94V27.8206L51.7336 61.7169L68 82ZM68 302H43V354H68V302ZM69 328V102.049H17V328H69ZM59.2664 122.332L84.2664 102.283L51.7336 61.7169L26.7336 81.7661L59.2664 122.332ZM42 82V328H94V82H42Z" fill="#166534" mask="url(#path-1-inside-1_325_13)"/>
<mask id="path-3-inside-2_325_13" fill="white">
<path d="M0 328V154L24 174V328H0Z"/>
</mask>
<path d="M0 154L39.6914 106.37L-62 21.6274V154H0ZM0 328H-62V390H0V328ZM24 328V390H86V328H24ZM24 174H86V144.961L63.6914 126.37L24 174ZM-62 154V328H62V154H-62ZM0 390H24V266H0V390ZM86 328V174H-38V328H86ZM63.6914 126.37L39.6914 106.37L-39.6914 201.63L-15.6914 221.63L63.6914 126.37Z" fill="#166534" mask="url(#path-3-inside-2_325_13)"/>
<mask id="path-5-inside-3_325_13" fill="white">
<path d="M240 328V153L215 173.115V328H240Z"/>
</mask>
<path d="M240 153L201.134 104.695L302 23.5378V153H240ZM240 328H302V390H240V328ZM215 328V390H153V328H215ZM215 173.115H153V143.423L176.134 124.81L215 173.115ZM302 153V328H178V153H302ZM240 390H215V266H240V390ZM153 328V173.115H277V328H153ZM176.134 124.81L201.134 104.695L278.866 201.305L253.866 221.42L176.134 124.81Z" fill="#166534" mask="url(#path-5-inside-3_325_13)"/>
<mask id="path-7-inside-4_325_13" fill="white">
<path d="M172 328V81L197 102V328H172Z"/>
</mask>
<path d="M172 81L251.756 -13.9474L48 -185.102V81H172ZM172 328H48V452H172V328ZM197 328V452H321V328H197ZM197 102H321V44.2177L276.756 7.0526L197 102ZM48 81V328H296V81H48ZM172 452H197V204H172V452ZM321 328V102H73V328H321ZM276.756 7.0526L251.756 -13.9474L92.2442 175.947L117.244 196.947L276.756 7.0526Z" fill="#166534" mask="url(#path-7-inside-4_325_13)"/>
<mask id="path-9-inside-5_325_13" fill="white">
<path d="M110 328H86V53L110 32V33V328Z"/>
</mask>
<path d="M86 328H3V411H86V328ZM110 328V411H193V328H110ZM110 32H193V-150.913L55.3441 -30.4639L110 32ZM86 53L31.3441 -9.46387L3 15.3372V53H86ZM86 411H110V245H86V411ZM193 328V33H27V328H193ZM193 33V32H27V33H193ZM55.3441 -30.4639L31.3441 -9.46387L140.656 115.464L164.656 94.4639L55.3441 -30.4639ZM3 53V328H169V53H3Z" fill="#166534" mask="url(#path-9-inside-5_325_13)"/>
<mask id="path-11-inside-6_325_13" fill="white">
<path d="M128 328V0L153 21V328H128Z"/>
</mask>
<path d="M128 0L201.324 -87.2904L14 -244.642L14 0H128ZM128 328H14V442H128V328ZM153 328V442H267V328H153ZM153 21H267V-32.1224L226.324 -66.2904L153 21ZM14 0V328H242V0H14ZM128 442H153V214H128V442ZM267 328V21H39V328H267ZM226.324 -66.2904L201.324 -87.2904L54.6761 87.2904L79.6761 108.29L226.324 -66.2904Z" fill="#166534" mask="url(#path-11-inside-6_325_13)"/>
</svg>
